<svg xmlns="http://www.w3.org/2000/svg" width="230.159" height="175.852" viewBox="0 0 230.159 175.852">
  <path id="double-quotes" d="M212.571,19.423c12.93,14.223,20.688,29.74,20.688,55.6,0,45.256-32.326,85.34-77.582,106.028L144.04,164.243c42.67-23.275,51.721-53.014,54.307-72.41-6.465,3.879-15.516,5.172-24.568,3.879C150.505,93.126,132.4,75.024,132.4,50.456c0-11.637,5.172-23.275,12.93-32.326,9.051-9.051,19.4-12.93,32.326-12.93a50.857,50.857,0,0,1,34.912,14.223Zm-129.3,0c12.93,14.223,20.688,29.74,20.688,55.6,0,45.256-32.326,85.34-77.582,106.028L14.737,164.243c42.67-23.275,51.721-53.014,54.307-72.41-6.465,3.879-15.516,5.172-24.568,3.879C21.2,93.126,3.1,73.731,3.1,50.456c0-11.637,5.172-23.275,12.93-32.326C25.082,9.079,35.426,5.2,48.356,5.2A50.857,50.857,0,0,1,83.268,19.423Z" transform="translate(-3.1 -5.2)" fill="#0d5baf" opacity="0.04"/>
</svg>
