<svg xmlns="http://www.w3.org/2000/svg" xmlns:xlink="http://www.w3.org/1999/xlink" width="536" height="437" viewBox="0 0 536 437">
  <defs>
    <clipPath id="clip-path">
      <rect id="Rectangle_1121" data-name="Rectangle 1121" width="536" height="437" transform="translate(964 2959)" fill="#fff" stroke="#707070" stroke-width="1"/>
    </clipPath>
    <clipPath id="clip-path-2">
      <rect id="Rectangle_1100" data-name="Rectangle 1100" width="534.388" height="504.787" fill="none" stroke="#fff" stroke-width="9"/>
    </clipPath>
  </defs>
  <g id="Mask_Group_22" data-name="Mask Group 22" transform="translate(-964 -2959)" clip-path="url(#clip-path)">
    <g id="Group_689" data-name="Group 689" transform="translate(1013 2987.606)" opacity="0.1">
      <g id="Group_688" data-name="Group 688" clip-path="url(#clip-path-2)">
        <path id="Path_848" data-name="Path 848" d="M93.754,21.075q7.785,0,17.874.917t20.394,2.52q10.313,1.605,18.336,3.206t11.689,3.438L160.213,85.7h-4.124q0-22.448-16.043-35.752Q124,36.666,99.708,36.656q-25.67,0-41.478,14.9T42.418,86.616q-.464,10.089,5.272,21.315,5.721,11.236,17.646,20.853L154.709,203.5q16.045,12.376,22.7,28.645a82.664,82.664,0,0,1,6.185,33.69q-.929,40.34-27.046,64.628T85.958,354.755A183.31,183.31,0,0,1,55.478,352,146.082,146.082,0,0,1,25,343.521Q10.786,337.8,2.08,328.626q-2.3-8.249-2.058-20.4a142.866,142.866,0,0,1,2.748-24.98,123.527,123.527,0,0,1,6.644-22.915h4.127q-2.3,23.377,6.644,41.71A63.954,63.954,0,0,0,46.314,330.23q17.186,9.86,39.644,8.937,27.04-.911,44.692-16.729T148.3,280.959a50.211,50.211,0,0,0-5.962-24.294Q136.379,245.67,124,236.956l-85.253-72.42Q21.328,151.713,14,134.284a78.166,78.166,0,0,1-6.42-34.83,86.431,86.431,0,0,1,11-38.734A74.459,74.459,0,0,1,47.69,31.846Q66.7,21.081,93.754,21.075m68.293,14.209H120.8V25.657h41.247Z" transform="translate(0.001 61.533)" fill="#fff" stroke="#fff" stroke-width="9"/>
        <path id="Path_849" data-name="Path 849" d="M183.243,21.075q7.785,0,17.874.917t20.4,2.52q10.313,1.605,18.332,3.206t11.689,3.438L249.7,85.7h-4.124q0-22.448-16.043-35.752Q213.489,36.666,189.2,36.656q-25.67,0-41.478,14.9T131.907,86.616q-.464,10.089,5.272,21.315t17.646,20.853L244.2,203.5q16.039,12.376,22.691,28.645a82.6,82.6,0,0,1,6.185,33.69q-.923,40.34-27.046,64.628t-70.582,24.294A183.356,183.356,0,0,1,144.967,352a146.149,146.149,0,0,1-30.476-8.482q-14.217-5.721-22.922-14.895-2.293-8.249-2.058-20.4a142.864,142.864,0,0,1,2.748-24.98A123.527,123.527,0,0,1,98.9,260.333h4.127q-2.3,23.377,6.644,41.71A63.976,63.976,0,0,0,135.8,330.23q17.186,9.86,39.648,8.937,27.034-.911,44.689-16.729,17.639-15.81,17.646-41.478a50.211,50.211,0,0,0-5.962-24.294q-5.956-10.995-18.328-19.708l-85.254-72.42q-17.427-12.823-24.753-30.252a78.107,78.107,0,0,1-6.417-34.83,86.376,86.376,0,0,1,11-38.734,74.485,74.485,0,0,1,29.108-28.873q19.009-10.765,46.064-10.771m68.293,14.209H210.289V25.657h41.247Z" transform="translate(261.282 61.533)" fill="#fff" stroke="#fff" stroke-width="9"/>
        <path id="Path_850" data-name="Path 850" d="M161.394,419.833H141.438V80.575h19.955ZM201.308,20.705H61.614V.75H201.308ZM179.832,40.66a57.356,57.356,0,0,0-7.62,19.959H90.7A57.341,57.341,0,0,0,83.086,40.66ZM101.524,80.575h19.955V419.833H101.524ZM81.569,439.788h99.78v19.955H81.569ZM47.683,479.7H210.445v19.955H47.683Z" transform="translate(139.22 2.19)" fill="none" stroke="#fff" stroke-miterlimit="10" stroke-width="9"/>
      </g>
    </g>
  </g>
</svg>
