<svg xmlns="http://www.w3.org/2000/svg" xmlns:xlink="http://www.w3.org/1999/xlink" width="606.395" height="148.065" viewBox="0 0 606.395 148.065"><defs><clipPath id="a"><rect width="606.395" height="148.065" fill="none"/></clipPath></defs><g clip-path="url(#a)"><text transform="translate(0 104.566)" fill="#fff" font-size="116.935" font-family="Cinzel-SemiBold, Cinzel" font-weight="600"><tspan x="0" y="0">S</tspan></text><text transform="translate(89.456 104.566)" fill="#fff" font-size="116.935" font-family="Cinzel-SemiBold, Cinzel" font-weight="600"><tspan x="0" y="0">S</tspan></text></g><text transform="translate(184.224 59.411)" fill="#fff" font-size="51.16" font-family="Cinzel-SemiBold, Cinzel" font-weight="600"><tspan x="0" y="0">S</tspan><tspan y="0" letter-spacing="-0.022em">t</tspan><tspan y="0" letter-spacing="-0.013em">o</tspan><tspan y="0" letter-spacing="-0.012em">i</tspan><tspan y="0">c </tspan><tspan y="0" letter-spacing="-0.002em">I</tspan><tspan y="0">n</tspan><tspan y="0" letter-spacing="-0.004em">s</tspan><tspan y="0" letter-spacing="0.003em">t</tspan><tspan y="0">i</tspan><tspan y="0" letter-spacing="0.001em">t</tspan><tspan y="0" letter-spacing="0.002em">u</tspan><tspan y="0">t</tspan></text><text transform="translate(568.891 59.411)" fill="#fff" font-size="21.64" font-family="Cinzel-SemiBold, Cinzel" font-weight="600"><tspan x="0" y="0" letter-spacing="-0.014em">o</tspan><tspan y="0">f </tspan></text><text transform="translate(184.224 106.298)" fill="#fff" font-size="51.16" font-family="Cinzel-SemiBold, Cinzel" font-weight="600"><tspan x="0" y="0" letter-spacing="-0.004em">S</tspan><tspan y="0">wit</tspan><tspan y="0" letter-spacing="0.004em">z</tspan><tspan y="0" letter-spacing="-0.008em">e</tspan><tspan y="0">r</tspan><tspan y="0" letter-spacing="0.006em">l</tspan><tspan y="0">and</tspan></text><text transform="translate(534.665 106.298)" fill="#fff" font-size="38.472" font-family="Cinzel-SemiBold, Cinzel" font-weight="600"><tspan x="0" y="0"> </tspan></text><text transform="translate(544.283 106.298)" fill="#fff" font-size="21.64" font-family="Cinzel-SemiBold, Cinzel" font-weight="600"><tspan x="0" y="0">E.</tspan><tspan y="0" letter-spacing="-0.127em">V</tspan><tspan y="0">.</tspan></text><g clip-path="url(#a)"><path d="M96.442,128.782H53.418v-6.591H96.442Zm-41.524-1.5H94.942v-3.591H54.918Zm34.1-8.683H62.063v-6.591H89.019Zm-25.456-1.5H87.519v-3.591H63.563Zm20.365-8.682H77.337V20.365h6.591Zm-5.091-1.5h3.591V21.865H78.837Zm-5.092,1.5H67.154V20.365h6.591Zm-5.091-1.5h3.591V21.865H68.654ZM86.566,16.774H64.514l-.111-.618a13.824,13.824,0,0,0-1.842-4.831l-.7-1.143H89.224l-.7,1.143a13.826,13.826,0,0,0-1.844,4.831Zm-20.809-1.5H85.323A15.284,15.284,0,0,1,86.6,11.682H64.478A15.29,15.29,0,0,1,65.757,15.274ZM94.111,6.591H56.972V0H94.111Zm-35.639-1.5H92.611V1.5H58.472Z" fill="#fff"/><path d="M1,86.591H-1V0H1Z" transform="translate(165.518 21.075)" fill="#fff"/></g></svg>