<svg xmlns="http://www.w3.org/2000/svg" width="51" height="52" viewBox="0 0 51 52">
  <g id="Group_686" data-name="Group 686" transform="translate(-1170 -4390)">
    <g id="Ellipse_32" data-name="Ellipse 32" transform="translate(1170 4390)" fill="#0d5baf" stroke="#fff" stroke-width="2">
      <ellipse cx="25.5" cy="26" rx="25.5" ry="26" stroke="none"/>
      <ellipse cx="25.5" cy="26" rx="24.5" ry="25" fill="none"/>
    </g>
    <g id="Group_679" data-name="Group 679" transform="translate(1170.305 4390.942)">
      <g id="linkedin-logo" transform="translate(15.695 13.886)">
        <path id="LinkedIn" d="M21.606,22.216V30.2H16.975V22.751c0-1.872-.67-3.15-2.346-3.15A2.534,2.534,0,0,0,12.253,21.3a3.169,3.169,0,0,0-.154,1.129V30.2H7.467s.062-12.623,0-13.931H12.1v1.975c-.009.015-.022.031-.03.045h.03v-.045a4.6,4.6,0,0,1,4.174-2.3C19.321,15.946,21.606,17.937,21.606,22.216ZM2.621,9.558a2.414,2.414,0,1,0-.061,4.815h.031a2.415,2.415,0,1,0,.031-4.815ZM.275,30.2H4.906V16.273H.275Z" transform="translate(0 -9.558)" fill="#fff"/>
      </g>
    </g>
  </g>
</svg>
